<svg xmlns="http://www.w3.org/2000/svg" xmlns:xlink="http://www.w3.org/1999/xlink" width="800" zoomAndPan="magnify" viewBox="0 0 778.5 332.250003" height="443" preserveAspectRatio="xMidYMid meet" version="1.0"><defs><g/><clipPath id="2754793979"><path d="M 102.53125 33.148438 L 306 33.148438 L 306 298.050781 L 102.53125 298.050781 Z M 102.53125 33.148438 " clip-rule="nonzero"/></clipPath><clipPath id="46123466a8"><path d="M 182 82 L 324.03125 82 L 324.03125 192 L 182 192 Z M 182 82 " clip-rule="nonzero"/></clipPath></defs><g clip-path="url(#2754793979)"><path fill="#3871c1" d="M 288.824219 155.535156 C 287.398438 157.839844 285.410156 161.1875 283.128906 165.417969 C 287.804688 174.144531 290.476562 184.179688 290.476562 197.050781 C 290.476562 244.816406 251.617188 283.671875 203.855469 283.671875 C 156.09375 283.671875 117.238281 244.816406 117.238281 197.050781 C 117.238281 172.363281 133.59375 138.347656 164.53125 98.6875 C 176.316406 83.582031 188.203125 70.300781 197.359375 60.585938 C 200.359375 67.875 203.742188 74.511719 207.390625 80.613281 L 228.519531 85.808594 C 218.183594 72.183594 209.277344 55.480469 203.855469 33.144531 C 203.855469 33.144531 102.578125 128.421875 102.578125 197.050781 C 102.578125 252.988281 147.921875 298.328125 203.855469 298.328125 C 259.789062 298.328125 305.132812 252.988281 305.132812 197.050781 C 305.132812 181.539062 301.761719 169.308594 296.222656 158.871094 L 288.824219 155.535156 " fill-opacity="1" fill-rule="nonzero"/></g><path fill="#3871c1" d="M 281.816406 197.050781 C 281.816406 218.222656 273.339844 237.4375 259.582031 251.503906 C 245.429688 266 225.671875 275.007812 203.859375 275.007812 C 160.871094 275.007812 125.902344 240.035156 125.902344 197.050781 C 125.902344 192.542969 126.5625 187.589844 127.847656 182.261719 C 143.640625 175.808594 168.371094 172.554688 200.527344 189.722656 C 241.390625 211.550781 269.128906 202.597656 281.191406 187.285156 C 281.605469 190.324219 281.816406 193.5625 281.816406 197.050781 " fill-opacity="1" fill-rule="nonzero"/><path fill="#589af4" d="M 259.582031 251.503906 C 245.429688 266 225.671875 275.007812 203.859375 275.007812 C 160.871094 275.007812 125.902344 240.035156 125.902344 197.050781 C 125.902344 192.542969 126.5625 187.589844 127.847656 182.261719 C 144.898438 182.746094 168.839844 189.765625 191.304688 218.460938 C 216.535156 250.6875 242.097656 256.808594 259.582031 251.503906 " fill-opacity="1" fill-rule="nonzero"/><path fill="#589af4" d="M 182.605469 161.445312 C 182.605469 166.964844 178.132812 171.441406 172.609375 171.441406 C 167.089844 171.441406 162.617188 166.964844 162.617188 161.445312 C 162.617188 155.925781 167.089844 151.449219 172.609375 151.449219 C 178.132812 151.449219 182.605469 155.925781 182.605469 161.445312 " fill-opacity="1" fill-rule="nonzero"/><path fill="#589af4" d="M 193.507812 140.792969 C 193.507812 144.234375 190.714844 147.027344 187.269531 147.027344 C 183.824219 147.027344 181.03125 144.234375 181.03125 140.792969 C 181.03125 137.34375 183.824219 134.550781 187.269531 134.550781 C 190.714844 134.550781 193.507812 137.34375 193.507812 140.792969 " fill-opacity="1" fill-rule="nonzero"/><path fill="#589af4" d="M 168.28125 132.84375 C 168.28125 136.128906 165.617188 138.792969 162.328125 138.792969 C 159.042969 138.792969 156.378906 136.128906 156.378906 132.84375 C 156.378906 129.554688 159.042969 126.890625 162.328125 126.890625 C 165.617188 126.890625 168.28125 129.554688 168.28125 132.84375 " fill-opacity="1" fill-rule="nonzero"/><g clip-path="url(#46123466a8)"><path fill="#f68712" d="M 282.582031 111.871094 C 276.578125 121.941406 263.949219 126.371094 252.777344 121.777344 C 241.609375 117.183594 235.746094 105.152344 238.558594 93.773438 L 191.417969 82.171875 L 182.605469 106.972656 L 209.5625 117.015625 C 209.5625 117.015625 208.585938 122.730469 205.9375 131.933594 C 211.308594 138.75 228.097656 157.589844 254.355469 164.628906 C 254.355469 164.628906 224.3125 162.140625 203.097656 141.054688 C 200.140625 149.898438 195.992188 160.539062 190.289062 171.863281 C 192.492188 171.746094 194.75 172.199219 196.835938 173.320312 C 201.226562 175.679688 203.628906 180.292969 203.386719 184.960938 C 206.144531 185.019531 208.929688 185.710938 211.523438 187.101562 C 213.761719 188.304688 215.640625 189.910156 217.121094 191.785156 C 222.136719 187.40625 229.53125 186.347656 235.742188 189.683594 C 236.421875 190.046875 237.0625 190.457031 237.667969 190.902344 C 245.429688 184.15625 256.847656 182.527344 266.441406 187.679688 C 266.5625 187.746094 266.679688 187.816406 266.796875 187.882812 C 268.203125 184.316406 269.636719 180.953125 271.050781 177.804688 C 256.980469 178.082031 248.550781 173.347656 248.550781 173.347656 C 257.9375 175.101562 265.949219 175.175781 272.621094 174.390625 C 280.140625 158.363281 286.839844 148.792969 286.839844 148.792969 L 313.066406 160.617188 L 324.25 136.792969 L 282.582031 111.871094 " fill-opacity="1" fill-rule="nonzero"/></g><g fill="#3871c1" fill-opacity="1"><g transform="translate(345.070319, 128.103817)"><g><path d="M 4.875 -52.265625 L 18.9375 -52.265625 L 18.9375 -11.5625 L 39.828125 -11.5625 L 39.828125 0 L 4.875 0 Z M 4.875 -52.265625 "/></g></g></g><g fill="#3871c1" fill-opacity="1"><g transform="translate(383.955753, 128.103817)"><g><path d="M 14.890625 0.71875 C 12.554688 0.71875 10.40625 0.257812 8.4375 -0.65625 C 6.476562 -1.570312 4.910156 -2.914062 3.734375 -4.6875 C 2.566406 -6.457031 1.984375 -8.628906 1.984375 -11.203125 C 1.984375 -15.253906 3.59375 -18.398438 6.8125 -20.640625 C 10.03125 -22.878906 15.035156 -24 21.828125 -24 L 24.71875 -24 L 24.71875 -25.59375 C 24.71875 -26.789062 24.382812 -27.664062 23.71875 -28.21875 C 23.0625 -28.78125 22.019531 -29.035156 20.59375 -28.984375 C 19.632812 -28.960938 18.578125 -28.734375 17.421875 -28.296875 C 16.265625 -27.859375 15.394531 -27.003906 14.8125 -25.734375 L 3.4375 -25.734375 C 3.582031 -28.671875 4.460938 -31.046875 6.078125 -32.859375 C 7.691406 -34.679688 9.820312 -36.007812 12.46875 -36.84375 C 15.113281 -37.675781 18.039062 -38.09375 21.25 -38.09375 C 25.582031 -38.09375 28.976562 -37.597656 31.4375 -36.609375 C 33.894531 -35.617188 35.628906 -34.25 36.640625 -32.5 C 37.660156 -30.757812 38.171875 -28.742188 38.171875 -26.453125 L 38.171875 0 L 26.53125 0 L 25.296875 -5.921875 C 24.191406 -3.390625 22.816406 -1.648438 21.171875 -0.703125 C 19.535156 0.242188 17.441406 0.71875 14.890625 0.71875 Z M 19.84375 -8.171875 C 20.519531 -8.171875 21.148438 -8.289062 21.734375 -8.53125 C 22.328125 -8.769531 22.835938 -9.097656 23.265625 -9.515625 C 23.703125 -9.941406 24.046875 -10.421875 24.296875 -10.953125 C 24.554688 -11.484375 24.695312 -12.050781 24.71875 -12.65625 L 24.71875 -17.34375 L 22.484375 -17.34375 C 21.734375 -17.34375 20.78125 -17.203125 19.625 -16.921875 C 18.46875 -16.648438 17.4375 -16.175781 16.53125 -15.5 C 15.625 -14.832031 15.171875 -13.882812 15.171875 -12.65625 C 15.171875 -11.25 15.644531 -10.148438 16.59375 -9.359375 C 17.550781 -8.566406 18.632812 -8.171875 19.84375 -8.171875 Z M 19.84375 -8.171875 "/></g></g></g><g fill="#3871c1" fill-opacity="1"><g transform="translate(423.130311, 128.103817)"><g><path d="M 17.390625 0.71875 C 15.867188 0.71875 14.285156 0.460938 12.640625 -0.046875 C 11.003906 -0.566406 9.472656 -1.332031 8.046875 -2.34375 C 6.628906 -3.351562 5.472656 -4.585938 4.578125 -6.046875 C 3.691406 -7.503906 3.25 -9.175781 3.25 -11.0625 L 3.25 -37.375 L 17.34375 -37.375 L 17.34375 -13.015625 C 17.34375 -11.929688 17.738281 -11.019531 18.53125 -10.28125 C 19.332031 -9.550781 20.441406 -9.1875 21.859375 -9.1875 C 23.285156 -9.1875 24.398438 -9.550781 25.203125 -10.28125 C 26.015625 -11.019531 26.421875 -11.929688 26.421875 -13.015625 L 26.421875 -37.375 L 40.375 -37.375 L 40.375 0 L 29.953125 0 L 28.296875 -7.65625 C 27.835938 -5.175781 26.96875 -3.335938 25.6875 -2.140625 C 24.414062 -0.953125 23.015625 -0.179688 21.484375 0.171875 C 19.953125 0.535156 18.585938 0.71875 17.390625 0.71875 Z M 17.390625 0.71875 "/></g></g></g><g fill="#3871c1" fill-opacity="1"><g transform="translate(463.858844, 128.103817)"><g><path d="M 3.609375 0 L 3.609375 -37.375 L 17.53125 -37.375 L 17.53125 -32.203125 C 18.0625 -32.992188 18.734375 -33.796875 19.546875 -34.609375 C 20.367188 -35.429688 21.429688 -36.117188 22.734375 -36.671875 C 24.035156 -37.234375 25.660156 -37.515625 27.609375 -37.515625 C 29.804688 -37.515625 31.894531 -37.09375 33.875 -36.25 C 35.863281 -35.40625 37.488281 -34.054688 38.75 -32.203125 C 40.019531 -30.347656 40.65625 -27.898438 40.65625 -24.859375 L 40.65625 0 L 26.5625 0 L 26.5625 -22.953125 C 26.5625 -24.179688 26.101562 -25.117188 25.1875 -25.765625 C 24.269531 -26.421875 23.28125 -26.75 22.21875 -26.75 C 21.550781 -26.75 20.859375 -26.601562 20.140625 -26.3125 C 19.429688 -26.019531 18.84375 -25.585938 18.375 -25.015625 C 17.90625 -24.453125 17.671875 -23.765625 17.671875 -22.953125 L 17.671875 0 Z M 3.609375 0 "/></g></g></g><g fill="#3871c1" fill-opacity="1"><g transform="translate(504.876502, 128.103817)"><g><path d="M 17.859375 0.71875 C 12.703125 0.71875 8.738281 -1.066406 5.96875 -4.640625 C 3.195312 -8.222656 1.8125 -12.988281 1.8125 -18.9375 C 1.8125 -22.863281 2.378906 -26.257812 3.515625 -29.125 C 4.660156 -32 6.316406 -34.210938 8.484375 -35.765625 C 10.660156 -37.316406 13.273438 -38.09375 16.328125 -38.09375 C 17.273438 -38.09375 18.226562 -38.007812 19.1875 -37.84375 C 20.15625 -37.675781 21.101562 -37.40625 22.03125 -37.03125 C 22.957031 -36.65625 23.816406 -36.144531 24.609375 -35.5 C 25.398438 -34.863281 26.085938 -34.066406 26.671875 -33.109375 L 26.671875 -53.703125 L 40.765625 -53.703125 L 40.765625 0 L 30.828125 0 L 29.171875 -7.65625 C 28.734375 -6.351562 28.179688 -5.1875 27.515625 -4.15625 C 26.859375 -3.125 26.066406 -2.242188 25.140625 -1.515625 C 24.210938 -0.796875 23.144531 -0.242188 21.9375 0.140625 C 20.726562 0.523438 19.367188 0.71875 17.859375 0.71875 Z M 21.171875 -9.109375 C 22.816406 -9.109375 24.144531 -9.820312 25.15625 -11.25 C 26.164062 -12.6875 26.671875 -15.25 26.671875 -18.9375 C 26.671875 -21.15625 26.441406 -22.941406 25.984375 -24.296875 C 25.523438 -25.660156 24.882812 -26.648438 24.0625 -27.265625 C 23.25 -27.878906 22.285156 -28.1875 21.171875 -28.1875 C 19.585938 -28.1875 18.226562 -27.507812 17.09375 -26.15625 C 15.957031 -24.8125 15.390625 -22.40625 15.390625 -18.9375 C 15.390625 -15.25 15.957031 -12.6875 17.09375 -11.25 C 18.226562 -9.820312 19.585938 -9.109375 21.171875 -9.109375 Z M 21.171875 -9.109375 "/></g></g></g><g fill="#3871c1" fill-opacity="1"><g transform="translate(546.363968, 128.103817)"><g><path d="M 3.609375 0 L 3.609375 -37.375 L 17.203125 -37.375 L 17.203125 -27.03125 C 17.785156 -29.03125 18.609375 -30.867188 19.671875 -32.546875 C 20.742188 -34.222656 22.113281 -35.566406 23.78125 -36.578125 C 25.445312 -37.585938 27.4375 -38.09375 29.75 -38.09375 C 29.914062 -38.09375 30.046875 -38.09375 30.140625 -38.09375 C 30.234375 -38.09375 30.28125 -38.09375 30.28125 -38.09375 L 30.28125 -24.796875 C 30.207031 -24.816406 30.140625 -24.828125 30.078125 -24.828125 C 30.023438 -24.828125 29.9375 -24.835938 29.8125 -24.859375 C 27.1875 -25.128906 25.070312 -25.109375 23.46875 -24.796875 C 21.863281 -24.484375 20.640625 -23.96875 19.796875 -23.25 C 18.960938 -22.539062 18.398438 -21.722656 18.109375 -20.796875 C 17.816406 -19.867188 17.671875 -18.910156 17.671875 -17.921875 L 17.671875 0 Z M 3.609375 0 "/></g></g></g><g fill="#3871c1" fill-opacity="1"><g transform="translate(574.118537, 128.103817)"><g><path d="M 11.390625 11.921875 C 8.492188 11.921875 6.410156 11.65625 5.140625 11.125 C 3.878906 10.601562 3.25 10.34375 3.25 10.34375 L 3.25 1.453125 L 6.828125 1.65625 C 8.660156 1.800781 10.097656 1.75 11.140625 1.5 C 12.191406 1.25 12.957031 0.910156 13.4375 0.484375 C 13.925781 0.0664062 14.238281 -0.332031 14.375 -0.71875 C 14.519531 -1.101562 14.609375 -1.347656 14.640625 -1.453125 L 14.78125 -2.171875 L 0.296875 -37.375 L 14.09375 -37.375 L 21.171875 -17.0625 L 28.515625 -37.375 L 42.28125 -37.375 L 27.6875 -2.171875 C 26.070312 1.753906 24.421875 4.726562 22.734375 6.75 C 21.046875 8.78125 19.265625 10.148438 17.390625 10.859375 C 15.523438 11.566406 13.523438 11.921875 11.390625 11.921875 Z M 11.390625 11.921875 "/></g></g></g><g fill="#f68712" fill-opacity="1"><g transform="translate(339.94518, 187.152902)"><g><path d="M 23.28125 -14.8125 C 23.28125 -11.363281 22.910156 -8.492188 22.171875 -6.203125 C 21.441406 -3.921875 20.078125 -2.207031 18.078125 -1.0625 C 16.085938 0.0703125 13.207031 0.640625 9.4375 0.640625 C 8.125 0.640625 6.625 0.582031 4.9375 0.46875 C 3.257812 0.351562 1.9375 0.195312 0.96875 0 L 0.96875 -11.3125 C 1.550781 -11.25 2.21875 -11.179688 2.96875 -11.109375 C 3.726562 -11.035156 4.441406 -11 5.109375 -11 C 7.347656 -11 8.832031 -11.566406 9.5625 -12.703125 C 10.300781 -13.847656 10.671875 -15.628906 10.671875 -18.046875 L 10.671875 -46.765625 L 23.28125 -46.765625 Z M 23.28125 -14.8125 "/></g></g></g><g fill="#f68712" fill-opacity="1"><g transform="translate(364.133094, 187.152902)"><g><path d="M 13.328125 0.640625 C 11.234375 0.640625 9.304688 0.234375 7.546875 -0.578125 C 5.796875 -1.398438 4.394531 -2.601562 3.34375 -4.1875 C 2.300781 -5.769531 1.78125 -7.71875 1.78125 -10.03125 C 1.78125 -13.644531 3.21875 -16.453125 6.09375 -18.453125 C 8.96875 -20.460938 13.445312 -21.46875 19.53125 -21.46875 L 22.125 -21.46875 L 22.125 -22.890625 C 22.125 -23.972656 21.828125 -24.757812 21.234375 -25.25 C 20.640625 -25.75 19.707031 -25.976562 18.4375 -25.9375 C 17.570312 -25.914062 16.617188 -25.707031 15.578125 -25.3125 C 14.546875 -24.925781 13.769531 -24.160156 13.25 -23.015625 L 3.078125 -23.015625 C 3.203125 -25.648438 3.984375 -27.78125 5.421875 -29.40625 C 6.867188 -31.03125 8.78125 -32.210938 11.15625 -32.953125 C 13.53125 -33.703125 16.148438 -34.078125 19.015625 -34.078125 C 22.890625 -34.078125 25.925781 -33.632812 28.125 -32.75 C 30.332031 -31.875 31.882812 -30.648438 32.78125 -29.078125 C 33.6875 -27.515625 34.140625 -25.710938 34.140625 -23.671875 L 34.140625 0 L 23.734375 0 L 22.640625 -5.296875 C 21.640625 -3.035156 20.40625 -1.476562 18.9375 -0.625 C 17.476562 0.21875 15.609375 0.640625 13.328125 0.640625 Z M 17.75 -7.3125 C 18.351562 -7.3125 18.921875 -7.414062 19.453125 -7.625 C 19.984375 -7.84375 20.441406 -8.140625 20.828125 -8.515625 C 21.210938 -8.898438 21.515625 -9.328125 21.734375 -9.796875 C 21.960938 -10.273438 22.09375 -10.78125 22.125 -11.3125 L 22.125 -15.515625 L 20.109375 -15.515625 C 19.441406 -15.515625 18.585938 -15.390625 17.546875 -15.140625 C 16.515625 -14.898438 15.59375 -14.476562 14.78125 -13.875 C 13.976562 -13.269531 13.578125 -12.414062 13.578125 -11.3125 C 13.578125 -10.0625 14.003906 -9.082031 14.859375 -8.375 C 15.710938 -7.664062 16.675781 -7.3125 17.75 -7.3125 Z M 17.75 -7.3125 "/></g></g></g><g fill="#f68712" fill-opacity="1"><g transform="translate(399.186297, 187.152902)"><g><path d="M 10.1875 10.671875 C 7.601562 10.671875 5.742188 10.429688 4.609375 9.953125 C 3.472656 9.484375 2.90625 9.25 2.90625 9.25 L 2.90625 1.296875 L 6.109375 1.484375 C 7.742188 1.617188 9.03125 1.570312 9.96875 1.34375 C 10.90625 1.113281 11.585938 0.8125 12.015625 0.4375 C 12.453125 0.0625 12.734375 -0.296875 12.859375 -0.640625 C 12.992188 -0.992188 13.070312 -1.210938 13.09375 -1.296875 L 13.21875 -1.9375 L 0.265625 -33.4375 L 12.609375 -33.4375 L 18.953125 -15.265625 L 25.515625 -33.4375 L 37.828125 -33.4375 L 24.765625 -1.9375 C 23.328125 1.570312 21.851562 4.234375 20.34375 6.046875 C 18.832031 7.859375 17.238281 9.082031 15.5625 9.71875 C 13.894531 10.351562 12.101562 10.671875 10.1875 10.671875 Z M 10.1875 10.671875 "/></g></g></g><g fill="#f68712" fill-opacity="1"><g transform="translate(434.659881, 187.152902)"><g><path d="M 13.328125 0.640625 C 11.234375 0.640625 9.304688 0.234375 7.546875 -0.578125 C 5.796875 -1.398438 4.394531 -2.601562 3.34375 -4.1875 C 2.300781 -5.769531 1.78125 -7.71875 1.78125 -10.03125 C 1.78125 -13.644531 3.21875 -16.453125 6.09375 -18.453125 C 8.96875 -20.460938 13.445312 -21.46875 19.53125 -21.46875 L 22.125 -21.46875 L 22.125 -22.890625 C 22.125 -23.972656 21.828125 -24.757812 21.234375 -25.25 C 20.640625 -25.75 19.707031 -25.976562 18.4375 -25.9375 C 17.570312 -25.914062 16.617188 -25.707031 15.578125 -25.3125 C 14.546875 -24.925781 13.769531 -24.160156 13.25 -23.015625 L 3.078125 -23.015625 C 3.203125 -25.648438 3.984375 -27.78125 5.421875 -29.40625 C 6.867188 -31.03125 8.78125 -32.210938 11.15625 -32.953125 C 13.53125 -33.703125 16.148438 -34.078125 19.015625 -34.078125 C 22.890625 -34.078125 25.925781 -33.632812 28.125 -32.75 C 30.332031 -31.875 31.882812 -30.648438 32.78125 -29.078125 C 33.6875 -27.515625 34.140625 -25.710938 34.140625 -23.671875 L 34.140625 0 L 23.734375 0 L 22.640625 -5.296875 C 21.640625 -3.035156 20.40625 -1.476562 18.9375 -0.625 C 17.476562 0.21875 15.609375 0.640625 13.328125 0.640625 Z M 17.75 -7.3125 C 18.351562 -7.3125 18.921875 -7.414062 19.453125 -7.625 C 19.984375 -7.84375 20.441406 -8.140625 20.828125 -8.515625 C 21.210938 -8.898438 21.515625 -9.328125 21.734375 -9.796875 C 21.960938 -10.273438 22.09375 -10.78125 22.125 -11.3125 L 22.125 -15.515625 L 20.109375 -15.515625 C 19.441406 -15.515625 18.585938 -15.390625 17.546875 -15.140625 C 16.515625 -14.898438 15.59375 -14.476562 14.78125 -13.875 C 13.976562 -13.269531 13.578125 -12.414062 13.578125 -11.3125 C 13.578125 -10.0625 14.003906 -9.082031 14.859375 -8.375 C 15.710938 -7.664062 16.675781 -7.3125 17.75 -7.3125 Z M 17.75 -7.3125 "/></g></g></g><g fill="#f68712" fill-opacity="1"><g transform="translate(469.713084, 187.152902)"><g/></g></g><g fill="#f68712" fill-opacity="1"><g transform="translate(479.769645, 187.152902)"><g><path d="M 25.125 -47.40625 C 28.832031 -47.40625 32.148438 -46.675781 35.078125 -45.21875 C 38.015625 -43.769531 40.390625 -41.753906 42.203125 -39.171875 C 44.015625 -36.597656 45.09375 -33.628906 45.4375 -30.265625 L 32.296875 -30.265625 C 32.066406 -31.710938 31.625 -32.960938 30.96875 -34.015625 C 30.320312 -35.078125 29.476562 -35.890625 28.4375 -36.453125 C 27.394531 -37.023438 26.148438 -37.3125 24.703125 -37.3125 C 23.128906 -37.3125 21.726562 -36.898438 20.5 -36.078125 C 19.269531 -35.265625 18.304688 -33.867188 17.609375 -31.890625 C 16.910156 -29.921875 16.5625 -27.222656 16.5625 -23.796875 C 16.5625 -18.597656 17.320312 -14.90625 18.84375 -12.71875 C 20.375 -10.53125 22.328125 -9.4375 24.703125 -9.4375 C 26.148438 -9.4375 27.394531 -9.800781 28.4375 -10.53125 C 29.476562 -11.269531 30.320312 -12.25 30.96875 -13.46875 C 31.625 -14.6875 32.066406 -16.019531 32.296875 -17.46875 L 45.4375 -17.46875 C 45.113281 -15.050781 44.566406 -12.753906 43.796875 -10.578125 C 43.035156 -8.398438 41.90625 -6.460938 40.40625 -4.765625 C 38.90625 -3.078125 36.914062 -1.753906 34.4375 -0.796875 C 31.957031 0.160156 28.851562 0.640625 25.125 0.640625 C 20.613281 0.640625 16.679688 -0.421875 13.328125 -2.546875 C 9.984375 -4.679688 7.382812 -7.601562 5.53125 -11.3125 C 3.675781 -15.019531 2.75 -19.25 2.75 -24 C 2.75 -28.738281 3.664062 -32.859375 5.5 -36.359375 C 7.332031 -39.859375 9.921875 -42.570312 13.265625 -44.5 C 16.617188 -46.4375 20.570312 -47.40625 25.125 -47.40625 Z M 25.125 -47.40625 "/></g></g></g><g fill="#f68712" fill-opacity="1"><g transform="translate(525.364768, 187.152902)"><g><path d="M 15.515625 -33.4375 L 15.515625 0 L 3.5625 0 L 3.5625 -33.4375 Z M 15.515625 -46.765625 L 15.515625 -36.15625 L 3.5625 -36.15625 L 3.5625 -46.765625 Z M 15.515625 -46.765625 "/></g></g></g><g fill="#f68712" fill-opacity="1"><g transform="translate(541.856433, 187.152902)"><g><path d="M 26.25 -24.90625 L 18.953125 -24.90625 L 19.015625 -9.765625 C 19.015625 -9.265625 19.101562 -8.882812 19.28125 -8.625 C 19.46875 -8.375 19.710938 -8.195312 20.015625 -8.09375 C 20.316406 -8 20.648438 -7.953125 21.015625 -7.953125 L 26.25 -7.953125 L 26.25 -0.515625 C 25.800781 -0.296875 25.082031 -0.0703125 24.09375 0.15625 C 23.101562 0.394531 21.601562 0.515625 19.59375 0.515625 C 16.082031 0.515625 13.367188 0.078125 11.453125 -0.796875 C 9.546875 -1.671875 8.226562 -2.835938 7.5 -4.296875 C 6.769531 -5.765625 6.40625 -7.394531 6.40625 -9.1875 L 6.40625 -24.90625 L 0.96875 -24.90625 L 0.96875 -33.4375 L 6.859375 -33.4375 L 10.09375 -43.84375 L 18.953125 -43.84375 L 18.953125 -33.5 L 26.25 -33.5 Z M 26.25 -24.90625 "/></g></g></g><g fill="#f68712" fill-opacity="1"><g transform="translate(567.790568, 187.152902)"><g><path d="M 10.1875 10.671875 C 7.601562 10.671875 5.742188 10.429688 4.609375 9.953125 C 3.472656 9.484375 2.90625 9.25 2.90625 9.25 L 2.90625 1.296875 L 6.109375 1.484375 C 7.742188 1.617188 9.03125 1.570312 9.96875 1.34375 C 10.90625 1.113281 11.585938 0.8125 12.015625 0.4375 C 12.453125 0.0625 12.734375 -0.296875 12.859375 -0.640625 C 12.992188 -0.992188 13.070312 -1.210938 13.09375 -1.296875 L 13.21875 -1.9375 L 0.265625 -33.4375 L 12.609375 -33.4375 L 18.953125 -15.265625 L 25.515625 -33.4375 L 37.828125 -33.4375 L 24.765625 -1.9375 C 23.328125 1.570312 21.851562 4.234375 20.34375 6.046875 C 18.832031 7.859375 17.238281 9.082031 15.5625 9.71875 C 13.894531 10.351562 12.101562 10.671875 10.1875 10.671875 Z M 10.1875 10.671875 "/></g></g></g><g fill="#000000" fill-opacity="1"><g transform="translate(345.070319, 226.725628)"><g><path d="M 18.46875 0 L 14.421875 0 L 12.140625 -8.828125 C 12.054688 -9.140625 11.910156 -9.785156 11.703125 -10.765625 C 11.503906 -11.753906 11.390625 -12.414062 11.359375 -12.75 C 11.316406 -12.34375 11.203125 -11.679688 11.015625 -10.765625 C 10.835938 -9.847656 10.695312 -9.191406 10.59375 -8.796875 L 8.328125 0 L 4.28125 0 L 0 -16.796875 L 3.5 -16.796875 L 5.65625 -7.625 C 6.03125 -5.9375 6.300781 -4.472656 6.46875 -3.234375 C 6.507812 -3.671875 6.613281 -4.34375 6.78125 -5.25 C 6.945312 -6.164062 7.101562 -6.878906 7.25 -7.390625 L 9.703125 -16.796875 L 13.0625 -16.796875 L 15.515625 -7.390625 C 15.617188 -6.960938 15.75 -6.316406 15.90625 -5.453125 C 16.070312 -4.585938 16.195312 -3.847656 16.28125 -3.234375 C 16.351562 -3.828125 16.472656 -4.566406 16.640625 -5.453125 C 16.816406 -6.347656 16.972656 -7.070312 17.109375 -7.625 L 19.25 -16.796875 L 22.75 -16.796875 Z M 18.46875 0 "/></g></g></g><g fill="#000000" fill-opacity="1"><g transform="translate(368.988542, 226.725628)"><g><path d="M 12.390625 0 L 11.171875 -4 L 5.0625 -4 L 3.84375 0 L 0 0 L 5.921875 -16.859375 L 10.28125 -16.859375 L 16.234375 0 Z M 10.328125 -6.984375 C 9.203125 -10.609375 8.566406 -12.65625 8.421875 -13.125 C 8.285156 -13.601562 8.1875 -13.984375 8.125 -14.265625 C 7.875 -13.273438 7.148438 -10.847656 5.953125 -6.984375 Z M 10.328125 -6.984375 "/></g></g></g><g fill="#000000" fill-opacity="1"><g transform="translate(386.39445, 226.725628)"><g><path d="M 12.03125 -4.671875 C 12.03125 -3.148438 11.484375 -1.953125 10.390625 -1.078125 C 9.296875 -0.203125 7.78125 0.234375 5.84375 0.234375 C 4.039062 0.234375 2.453125 -0.101562 1.078125 -0.78125 L 1.078125 -4.09375 C 2.210938 -3.582031 3.171875 -3.222656 3.953125 -3.015625 C 4.742188 -2.816406 5.460938 -2.71875 6.109375 -2.71875 C 6.890625 -2.71875 7.488281 -2.863281 7.90625 -3.15625 C 8.320312 -3.457031 8.53125 -3.90625 8.53125 -4.5 C 8.53125 -4.820312 8.4375 -5.109375 8.25 -5.359375 C 8.070312 -5.617188 7.804688 -5.867188 7.453125 -6.109375 C 7.097656 -6.347656 6.375 -6.726562 5.28125 -7.25 C 4.25 -7.726562 3.472656 -8.191406 2.953125 -8.640625 C 2.441406 -9.085938 2.035156 -9.601562 1.734375 -10.1875 C 1.429688 -10.78125 1.28125 -11.472656 1.28125 -12.265625 C 1.28125 -13.742188 1.78125 -14.910156 2.78125 -15.765625 C 3.789062 -16.617188 5.1875 -17.046875 6.96875 -17.046875 C 7.832031 -17.046875 8.660156 -16.941406 9.453125 -16.734375 C 10.253906 -16.523438 11.085938 -16.234375 11.953125 -15.859375 L 10.796875 -13.09375 C 9.898438 -13.457031 9.160156 -13.710938 8.578125 -13.859375 C 7.992188 -14.003906 7.414062 -14.078125 6.84375 -14.078125 C 6.175781 -14.078125 5.660156 -13.921875 5.296875 -13.609375 C 4.929688 -13.296875 4.75 -12.882812 4.75 -12.375 C 4.75 -12.0625 4.820312 -11.785156 4.96875 -11.546875 C 5.113281 -11.316406 5.34375 -11.09375 5.65625 -10.875 C 5.976562 -10.65625 6.734375 -10.265625 7.921875 -9.703125 C 9.492188 -8.953125 10.570312 -8.195312 11.15625 -7.4375 C 11.738281 -6.6875 12.03125 -5.765625 12.03125 -4.671875 Z M 12.03125 -4.671875 "/></g></g></g><g fill="#000000" fill-opacity="1"><g transform="translate(400.526968, 226.725628)"><g><path d="M 15.875 0 L 12.328125 0 L 12.328125 -7.25 L 5.671875 -7.25 L 5.671875 0 L 2.109375 0 L 2.109375 -16.796875 L 5.671875 -16.796875 L 5.671875 -10.21875 L 12.328125 -10.21875 L 12.328125 -16.796875 L 15.875 -16.796875 Z M 15.875 0 "/></g></g></g><g fill="#000000" fill-opacity="1"><g transform="translate(419.701652, 226.725628)"><g><path d="M 12.390625 0 L 11.171875 -4 L 5.0625 -4 L 3.84375 0 L 0 0 L 5.921875 -16.859375 L 10.28125 -16.859375 L 16.234375 0 Z M 10.328125 -6.984375 C 9.203125 -10.609375 8.566406 -12.65625 8.421875 -13.125 C 8.285156 -13.601562 8.1875 -13.984375 8.125 -14.265625 C 7.875 -13.273438 7.148438 -10.847656 5.953125 -6.984375 Z M 10.328125 -6.984375 "/></g></g></g><g fill="#000000" fill-opacity="1"><g transform="translate(437.107557, 226.725628)"><g><path d="M 5.671875 -8.890625 L 6.84375 -8.890625 C 7.9375 -8.890625 8.753906 -9.101562 9.296875 -9.53125 C 9.847656 -9.96875 10.125 -10.601562 10.125 -11.4375 C 10.125 -12.269531 9.894531 -12.882812 9.4375 -13.28125 C 8.976562 -13.675781 8.265625 -13.875 7.296875 -13.875 L 5.671875 -13.875 Z M 13.71875 -11.5625 C 13.71875 -9.75 13.148438 -8.363281 12.015625 -7.40625 C 10.890625 -6.445312 9.285156 -5.96875 7.203125 -5.96875 L 5.671875 -5.96875 L 5.671875 0 L 2.109375 0 L 2.109375 -16.796875 L 7.484375 -16.796875 C 9.515625 -16.796875 11.0625 -16.359375 12.125 -15.484375 C 13.1875 -14.609375 13.71875 -13.300781 13.71875 -11.5625 Z M 13.71875 -11.5625 "/></g></g></g><g fill="#000000" fill-opacity="1"><g transform="translate(453.054791, 226.725628)"><g><path d="M 5.671875 -8.890625 L 6.84375 -8.890625 C 7.9375 -8.890625 8.753906 -9.101562 9.296875 -9.53125 C 9.847656 -9.96875 10.125 -10.601562 10.125 -11.4375 C 10.125 -12.269531 9.894531 -12.882812 9.4375 -13.28125 C 8.976562 -13.675781 8.265625 -13.875 7.296875 -13.875 L 5.671875 -13.875 Z M 13.71875 -11.5625 C 13.71875 -9.75 13.148438 -8.363281 12.015625 -7.40625 C 10.890625 -6.445312 9.285156 -5.96875 7.203125 -5.96875 L 5.671875 -5.96875 L 5.671875 0 L 2.109375 0 L 2.109375 -16.796875 L 7.484375 -16.796875 C 9.515625 -16.796875 11.0625 -16.359375 12.125 -15.484375 C 13.1875 -14.609375 13.71875 -13.300781 13.71875 -11.5625 Z M 13.71875 -11.5625 "/></g></g></g></svg>