<svg xmlns="http://www.w3.org/2000/svg" xmlns:xlink="http://www.w3.org/1999/xlink" width="64" zoomAndPan="magnify" viewBox="0 0 48 48" height="64" preserveAspectRatio="xMidYMid meet" version="1.0"><defs><clipPath id="b4bea90ed0"><path d="M 6.957031 1.257812 L 41 1.257812 L 41 46 L 6.957031 46 Z M 6.957031 1.257812 " clip-rule="nonzero"/></clipPath><clipPath id="ba95802126"><path d="M 20 9 L 44.425781 9 L 44.425781 28 L 20 28 Z M 20 9 " clip-rule="nonzero"/></clipPath></defs><g clip-path="url(#b4bea90ed0)"><path fill="#3871c1" d="M 38.21875 21.796875 C 37.980469 22.183594 37.644531 22.742188 37.261719 23.453125 C 38.046875 24.917969 38.496094 26.601562 38.496094 28.761719 C 38.496094 36.777344 31.976562 43.300781 23.960938 43.300781 C 15.945312 43.300781 9.421875 36.777344 9.421875 28.761719 C 9.421875 24.621094 12.167969 18.910156 17.359375 12.253906 C 19.335938 9.71875 21.332031 7.492188 22.867188 5.859375 C 23.371094 7.082031 23.941406 8.199219 24.550781 9.222656 L 28.097656 10.09375 C 26.363281 7.808594 24.867188 5.003906 23.960938 1.253906 C 23.960938 1.253906 6.960938 17.246094 6.960938 28.761719 C 6.960938 38.148438 14.570312 45.761719 23.960938 45.761719 C 33.347656 45.761719 40.957031 38.148438 40.957031 28.761719 C 40.957031 26.160156 40.390625 24.105469 39.460938 22.355469 L 38.21875 21.796875 " fill-opacity="1" fill-rule="nonzero"/></g><path fill="#3871c1" d="M 37.042969 28.761719 C 37.042969 32.316406 35.621094 35.539062 33.3125 37.902344 C 30.9375 40.335938 27.621094 41.847656 23.960938 41.847656 C 16.746094 41.847656 10.875 35.976562 10.875 28.761719 C 10.875 28.007812 10.988281 27.175781 11.203125 26.28125 C 13.851562 25.199219 18.003906 24.652344 23.402344 27.53125 C 30.257812 31.195312 34.914062 29.695312 36.9375 27.125 C 37.007812 27.632812 37.042969 28.175781 37.042969 28.761719 " fill-opacity="1" fill-rule="nonzero"/><path fill="#589af4" d="M 33.3125 37.902344 C 30.9375 40.335938 27.621094 41.847656 23.960938 41.847656 C 16.746094 41.847656 10.875 35.976562 10.875 28.761719 C 10.875 28.007812 10.988281 27.175781 11.203125 26.28125 C 14.066406 26.363281 18.082031 27.539062 21.851562 32.355469 C 26.085938 37.765625 30.378906 38.792969 33.3125 37.902344 " fill-opacity="1" fill-rule="nonzero"/><path fill="#589af4" d="M 20.394531 22.789062 C 20.394531 23.714844 19.640625 24.464844 18.714844 24.464844 C 17.789062 24.464844 17.039062 23.714844 17.039062 22.789062 C 17.039062 21.859375 17.789062 21.109375 18.714844 21.109375 C 19.640625 21.109375 20.394531 21.859375 20.394531 22.789062 " fill-opacity="1" fill-rule="nonzero"/><path fill="#589af4" d="M 22.222656 19.320312 C 22.222656 19.898438 21.753906 20.367188 21.175781 20.367188 C 20.597656 20.367188 20.128906 19.898438 20.128906 19.320312 C 20.128906 18.742188 20.597656 18.273438 21.175781 18.273438 C 21.753906 18.273438 22.222656 18.742188 22.222656 19.320312 " fill-opacity="1" fill-rule="nonzero"/><path fill="#589af4" d="M 17.988281 17.988281 C 17.988281 18.539062 17.542969 18.984375 16.988281 18.984375 C 16.4375 18.984375 15.992188 18.539062 15.992188 17.988281 C 15.992188 17.433594 16.4375 16.988281 16.988281 16.988281 C 17.542969 16.988281 17.988281 17.433594 17.988281 17.988281 " fill-opacity="1" fill-rule="nonzero"/><g clip-path="url(#ba95802126)"><path fill="#f68712" d="M 37.171875 14.46875 C 36.164062 16.15625 34.042969 16.902344 32.167969 16.128906 C 30.296875 15.359375 29.3125 13.339844 29.785156 11.429688 L 21.871094 9.484375 L 20.394531 13.644531 L 24.917969 15.332031 C 24.917969 15.332031 24.753906 16.289062 24.308594 17.835938 C 25.210938 18.976562 28.027344 22.140625 32.433594 23.320312 C 32.433594 23.320312 27.390625 22.902344 23.832031 19.363281 C 23.335938 20.847656 22.640625 22.636719 21.683594 24.535156 C 22.050781 24.515625 22.429688 24.59375 22.78125 24.78125 C 23.519531 25.175781 23.921875 25.949219 23.878906 26.734375 C 24.34375 26.742188 24.8125 26.859375 25.246094 27.09375 C 25.621094 27.296875 25.9375 27.566406 26.1875 27.878906 C 27.027344 27.144531 28.269531 26.964844 29.308594 27.527344 C 29.425781 27.585938 29.53125 27.65625 29.632812 27.730469 C 30.9375 26.597656 32.851562 26.324219 34.464844 27.191406 C 34.484375 27.203125 34.503906 27.210938 34.523438 27.222656 C 34.757812 26.625 35 26.0625 35.238281 25.53125 C 32.875 25.578125 31.460938 24.785156 31.460938 24.785156 C 33.035156 25.078125 34.378906 25.089844 35.5 24.960938 C 36.761719 22.269531 37.886719 20.664062 37.886719 20.664062 L 42.289062 22.648438 L 44.164062 18.648438 L 37.171875 14.46875 " fill-opacity="1" fill-rule="nonzero"/></g></svg>